<svg xmlns="http://www.w3.org/2000/svg" width="1920" height="1510" viewBox="0 0 1920 1510">
    <defs>
        <linearGradient id="prefix__a" x1="63.084%" x2="93.869%" y1="52.248%" y2="46.189%">
            <stop offset="0%" stop-color="#101010"/>
            <stop offset="14.358%" stop-color="#111"/>
            <stop offset="100%" stop-color="#E0E2E4"/>
        </linearGradient>
        <linearGradient id="prefix__b" x1="63.084%" x2="93.869%" y1="52.277%" y2="46.141%">
            <stop offset="0%" stop-color="#101010"/>
            <stop offset="14.358%" stop-color="#111"/>
            <stop offset="100%" stop-color="#E0E2E4"/>
        </linearGradient>
        <linearGradient id="prefix__c" x1="63.084%" x2="93.869%" y1="52.306%" y2="46.091%">
            <stop offset="0%" stop-color="#101010"/>
            <stop offset="14.358%" stop-color="#111"/>
            <stop offset="100%" stop-color="#E0E2E4"/>
        </linearGradient>
        <linearGradient id="prefix__d" x1="63.084%" x2="93.869%" y1="52.338%" y2="46.037%">
            <stop offset="0%" stop-color="#101010"/>
            <stop offset="14.358%" stop-color="#111"/>
            <stop offset="100%" stop-color="#E0E2E4"/>
        </linearGradient>
        <linearGradient id="prefix__e" x1="63.084%" x2="93.869%" y1="52.365%" y2="45.992%">
            <stop offset="0%" stop-color="#101010"/>
            <stop offset="14.358%" stop-color="#111"/>
            <stop offset="100%" stop-color="#E0E2E4"/>
        </linearGradient>
        <linearGradient id="prefix__f" x1="63.084%" x2="93.869%" y1="52.397%" y2="45.937%">
            <stop offset="0%" stop-color="#101010"/>
            <stop offset="14.358%" stop-color="#111"/>
            <stop offset="100%" stop-color="#E0E2E4"/>
        </linearGradient>
    </defs>
    <g fill="none" fill-rule="evenodd">
        <path fill="url(#prefix__a)" d="M222.774 142.116c190.319 87.408 372.74 201.673 555.612 324.112 196.103 131.61 390.717 269.702 591.53 404.107 172.759 116.6 355.873 234.106 544.31 345.498 337.099 198.065 696.527 379.467 1045.38 479.457 131.54 37.878 262.56 64.106 390.266 73.487 72 4.789 143.513 6.114 213.41.485 357.478-26.897 593.113-208.35 805.934-421.11 176.095-176.902 329.64-376.66 505.643-566.865C5199.431 431.538 5630.235 217.086 6117 305.793c-.427-.053-.427.747 0 .813-486.5-88.523-916.934 125.706-1241.252 475.048-176.845 189.839-329.606 389.924-505.643 566.852-212.844 212.93-448.803 394.647-806.615 421.609-69.909 5.524-141.48 4.986-213.502-.525-127.695-9.656-258.843-35.674-390.382-73.513-348.587-100.725-709.309-281.17-1045.796-479.654-189.002-111.024-371.505-229.12-544.078-345.563-200.398-134.825-395.566-272.536-591.993-404.186-183.957-121.717-365.35-235.877-555.335-324.033C149.597 108.66 75.335 78.588.242 54.971c-.323 0-.323-.971 0-.971 75.151 23.748 149.967 53.347 222.532 88.116" transform="matrix(-1 0 0 1 5637 -243)"/>
        <path fill="url(#prefix__b)" d="M216.317 128.825c189.278 89.28 372.39 202.173 555.364 325.055 196.055 132.319 390.285 271.122 591.385 406.302 172.745 117.225 355.718 235.526 544.2 348.012 341.955 202.12 707.302 388.215 1061.45 488.94 127.117 36.95 253.586 62.02 377.054 71.456 72.033 5.46 143.638 6.156 214.032 1.392 357.623-26.816 594.56-207.174 805.763-421.778 175.365-177.97 328.216-379.237 503.166-572.183C5193.264 420.593 5626.384 200.766 6117 290.361c-.404-.13-.427.749 0 .801-490.2-89.385-923.712 129.89-1247.426 485.423-175.931 192.067-327.801 394.135-503.155 571.987-212.115 213.973-447.92 396.287-806.283 422.145-70.427 4.843-141.744 4.252-214.146-1.273-123.133-9.45-250.261-34.455-377.274-71.561-354.24-100.778-720.753-286.387-1061.67-489.151-189.197-112.132-371.559-230.84-544.36-348.025-200.72-135.39-394.477-274.731-591.571-406.289C588.28 331.563 405.306 218.026 215.982 129.481 144.954 96.601 73.21 67.187.312 44.021c-.416-.145-.416-1.13 0-1.021 72.99 23.229 144.815 53.168 216.005 85.825" transform="matrix(-1 0 0 1 5637 -243)"/>
        <path fill="url(#prefix__c)" d="M210.14 115.673c190.086 87.868 372.217 202.695 555.006 325.96 197.729 131.664 390.932 272.057 591.293 408.355 173.437 117.385 355.903 236.83 544.488 350.279 346.516 206.146 717.705 396.779 1077.072 498.35 122.683 35.619 245.158 59.676 364.158 69.218 72.598 6.85 144.065 7.113 214.62 2.23 358.904-24.214 594.93-206.565 805.382-422.371 174.58-178.952 326.623-381.975 500.868-576.886C5187.561 409.91 5622.401 185.548 6117 275.096c-.404-.157-.427.748 0 .8-494.322-89.403-928.665 134.763-1253.21 495.45-173.484 195.279-326.174 397.645-500.88 576.978-211.134 215.07-446.605 397.527-806.006 422.687-70.37 4.79-142.265 3.675-214.551-2.284-119.08-9.594-241.787-33.546-364.354-69.323-359.598-101.728-731.849-291.876-1077.5-498.6-189.185-113.185-371.038-232.906-544.625-350.33-200.258-136.364-394.35-276.166-591.248-408.225-183.4-122.87-364.92-237.763-555.051-325.749C140.832 84.28 71.109 55.786.312 33.015c-.416-.131-.416-1.09 0-1.015 70.716 23.76 141.04 51.348 209.828 83.673" transform="matrix(-1 0 0 1 5637 -243)"/>
        <path fill="url(#prefix__d)" d="M204.067 102.839c189.336 89.147 372.217 203.213 554.96 327.047 196.759 132.868 390.562 273.415 591.143 410.484 173.402 118.005 355.222 238.767 544.453 352.689 350.857 210.303 728.627 404.628 1093.005 507.758 118.145 34.044 235.875 56.823 351.146 67.34 72.794 7.01 144.215 7.168 215.105 3.177 360.128-23.252 594.872-206.85 805.197-423.311 173.83-180.46 325.065-384.921 498.421-581.977 325.561-365.503 761.36-595.802 1259.503-506.13-.404-.184-.404.814 0 .945-497.797-89.738-934.184 139.603-1258.776 505.474-174.303 196.451-324.452 401.765-498.259 582.16-209.598 216.894-445.346 400.178-805.786 423.482-70.52 4.779-142.414 3.991-215.209-3.072-115.201-9.663-232.966-33.467-351.342-67.287-364.608-103.406-742.425-297.73-1093.34-508.034-188.677-114.447-371.374-234.513-544.626-352.794-200.442-137.121-394.719-277.472-591.19-410.405-182.696-123.768-364.515-239.358-554.82-326.877C136.722 72.498 69.008 44.611.312 21.963c-.416-.053-.416-1.037 0-.963 68.8 22.626 136.745 50.854 203.755 81.839" transform="matrix(-1 0 0 1 5637 -243)"/>
        <path fill="url(#prefix__e)" d="M198.514 91.233c190.028 88.263 372.113 203.45 554.763 327.728 196.194 133.53 390.609 274.459 590.959 412.239 173.321 118.572 355.96 239.675 544.637 354.783 354.887 214.418 739.1 412.12 1108.268 516.666 114.474 31.267 227.724 54.727 338.666 65.184 73.014 6.324 144.423 7.807 215.624 3.923 361.283-21.754 596.223-205.824 805.024-423.68 172.872-181.669 322.479-388.175 495.974-586.665C5176.396 390.004 5615.416 155.905 6117 245.651c-.473-.08-.473.905 0 .944-501.169-89.496-939.08 144.393-1263.705 515.354-173.45 198.424-322.294 405.678-496.112 586.6-208.074 218.498-443.418 402.293-805.44 424.007-70.728 4.724-143.176 2.178-215.729-4.028-111.056-10.352-224.399-33.917-338.873-65.183-369.734-103.706-753.196-302.773-1108.545-516.771-189.185-115.056-372.263-235.858-545.007-354.941-200.962-137.544-394.396-278.854-590.727-412.225C570.026 295.247 388.3 179.496 198.145 91.732 133.039 61.122 67.149 34.263.312 11.997c-.416-.052-.416-1.128 0-.997C67.38 33.095 133.039 61.095 198.514 91.233" transform="matrix(-1 0 0 1 5637 -243)"/>
        <path fill="url(#prefix__f)" d="M1338.636 822.055c501.296 347.005 1098.512 723.69 1668.457 883.015 184.544 51.713 368.118 78.468 542.445 67.787 667.078-39.759 912.005-567.503 1298.226-1016.162C5171.917 380.325 5612.056 140.262 6117 230.933c-.473-.066-.404.695 0 .8-504.575-90.5-944.206 149.287-1268.405 525.435-386.002 448.83-630.802 976.94-1298.85 1016.542-174.291 10.616-357.97-16.297-542.652-67.879-570.222-159.508-1167.254-536.509-1668.884-883.422C882.09 507.815 473.54 164.773.312.974-.104.934-.104-.063.312 0 473.679 163.986 883.21 506.778 1338.636 822.055" transform="matrix(-1 0 0 1 5637 -243)"/>
    </g>
</svg>
