<?xml version="1.0" encoding="utf-8"?>
<!-- Generator: Adobe Illustrator 24.1.0, SVG Export Plug-In . SVG Version: 6.00 Build 0)  -->
<svg version="1.1" id="Laag_1" xmlns="http://www.w3.org/2000/svg" xmlns:xlink="http://www.w3.org/1999/xlink" x="0px" y="0px"
	 viewBox="0 0 24 24" style="enable-background:new 0 0 24 24;" xml:space="preserve">
<style type="text/css">
	.st0{fill:#E0E2E4;}
</style>
<path class="st0" d="M13.6,0c1.8,0,2.3,0,3.2,0.1c1.2,0.1,2.1,0.4,2.9,0.6c0.8,0.4,1.4,0.7,2.1,1.4c0.7,0.7,1.1,1.3,1.4,2.1
	c0.4,0.7,0.6,1.5,0.6,2.9c0.1,1,0.1,1.5,0.1,3.5v1.7c0,2.9-0.1,3.3-0.1,4.6c-0.1,1.2-0.4,2.1-0.6,2.9c-0.4,0.8-0.7,1.4-1.4,2.1
	c-0.7,0.7-1.3,1.1-2.1,1.4c-0.7,0.4-1.5,0.6-2.9,0.6c-1,0.1-1.5,0.1-3.5,0.1h-1.7c-2.9,0-3.3-0.1-4.6-0.1c-1.2-0.1-2.1-0.4-2.9-0.6
	c-0.8-0.4-1.4-0.7-2.1-1.4c-0.7-0.7-1.1-1.3-1.4-2.1c-0.4-0.7-0.6-1.5-0.6-2.9C0,15.9,0,15.4,0,13.6v-1.9c0-2.9,0.1-3.3,0.1-4.6
	C0.2,5.9,0.5,5,0.7,4.3c0.4-0.8,0.7-1.4,1.4-2.1s1.3-1.1,2.1-1.4C5,0.4,5.8,0.1,7.1,0.1C8.1,0,8.6,0,10.4,0H13.6z M13.4,2.1h-2.8
	c-2,0-2.4,0-3.4,0.1C6.1,2.3,5.5,2.5,5,2.6C4.5,2.7,4,3,3.7,3.4C3.3,3.8,3.1,4.2,2.8,4.8C2.7,5.2,2.5,5.8,2.5,7
	c-0.1,1-0.1,1.4-0.1,3.6v1.1c0,3.1,0.1,3.4,0.1,4.8c0,1.2,0.2,1.8,0.4,2.3c0.1,0.5,0.5,0.8,0.8,1.3C4,20.4,4.4,20.7,5,20.9
	c0.5,0.1,1.1,0.4,2.3,0.4c1.1,0.1,1.5,0.1,3.9,0.1H12c3.1,0,3.4-0.1,4.8-0.1c1.2,0,1.8-0.2,2.3-0.4c0.5-0.1,1-0.5,1.3-0.8
	c0.4-0.4,0.6-0.7,0.8-1.3c0.1-0.5,0.4-1.1,0.4-2.3c0.1-1,0.1-1.4,0.1-3.4v-1.7c0-2.8-0.1-3.2-0.1-4.4c0-1.2-0.2-1.8-0.4-2.3
	c-0.1-0.5-0.4-0.8-0.8-1.3C20,3.1,19.6,2.9,19,2.6c-0.5-0.1-1.1-0.4-2.3-0.4C15.8,2.2,15.3,2.1,13.4,2.1L13.4,2.1z M12,5.9
	c3.3,0,6.1,2.7,6.1,6.1c0,3.3-2.7,6.1-6.1,6.1S5.9,15.3,5.9,12C5.9,8.7,8.7,5.9,12,5.9L12,5.9z M12,8.1c-2.1,0-3.9,1.8-3.9,3.9
	c0,2.1,1.8,3.9,3.9,3.9c2.1,0,3.9-1.8,3.9-3.9C15.9,9.9,14.1,8.1,12,8.1z M18.1,4.8c0.8,0,1.4,0.6,1.4,1.4c0,0.8-0.6,1.4-1.4,1.4
	c-0.8,0-1.4-0.6-1.4-1.4C16.6,5.3,17.2,4.8,18.1,4.8z"/>
</svg>
