<?xml version="1.0" encoding="utf-8"?>
<!-- Generator: Adobe Illustrator 24.1.0, SVG Export Plug-In . SVG Version: 6.00 Build 0)  -->
<svg version="1.1" id="Laag_1" xmlns="http://www.w3.org/2000/svg" xmlns:xlink="http://www.w3.org/1999/xlink" x="0px" y="0px"
	 viewBox="0 0 37 23" style="enable-background:new 0 0 37 23;" xml:space="preserve">
<style type="text/css">
	.st0{fill:#E0E2E4;}
</style>
<path class="st0" d="M0,23v-2.2h2.7V2.2H0V0h10.3c2.5,0,4.3,0.5,5.5,1.6c1.2,1.1,1.8,2.5,1.8,4.2c0,1.2-0.3,2.2-0.9,3
	c-0.6,0.8-1.6,1.6-3,2.2c0.6,0.2,1.1,0.4,1.5,0.7c0.4,0.3,0.7,0.6,1,1c0.2,0.2,0.3,0.6,0.4,1c0.1,0.6,0.2,1.3,0.2,2v5.1h2.7V23h-5.7
	v-6.9c0-1.1-0.2-1.9-0.5-2.5c-0.3-0.6-0.9-1-1.6-1.2C10.8,12.2,9.6,12,8,12c-0.7,0-1.4,0-2.2,0v8.7h2.7V23H0z M5.8,2.2v7.7h3.6
	c0.6,0,1.3-0.1,1.9-0.2c0.7-0.1,1.1-0.3,1.5-0.5c0.6-0.4,1-0.8,1.3-1.4c0.3-0.6,0.5-1.2,0.5-2c0-0.9-0.2-1.6-0.7-2.2
	c-0.5-0.6-1-0.9-1.7-1.1C11.5,2.3,10.4,2.2,9,2.2H5.8z"/>
<path class="st0" d="M21.3,23v-2.2h2.8V2.2h-2.7V0h8.8v2.2h-3v18.6h7.3v-4.5H37V23H21.3z"/>
</svg>
