<?xml version="1.0" encoding="utf-8"?>
<!-- Generator: Adobe Illustrator 24.1.0, SVG Export Plug-In . SVG Version: 6.00 Build 0)  -->
<svg version="1.1" id="Laag_1" xmlns="http://www.w3.org/2000/svg" xmlns:xlink="http://www.w3.org/1999/xlink" x="0px" y="0px"
	 viewBox="0 0 215 15" style="enable-background:new 0 0 215 15;" xml:space="preserve">
<style type="text/css">
	.st0{fill:#E0E2E4;}
</style>
<path class="st0" d="M0,14.7v-1.4h1.7V1.7H0V0.3h6.5c1.6,0,2.7,0.3,3.4,1S11,2.9,11,4c0,0.7-0.2,1.4-0.6,1.9s-1,1-1.9,1.4
	c0.4,0.1,0.7,0.2,0.9,0.4S9.9,8,10.1,8.3c0.1,0.2,0.2,0.4,0.2,0.6c0.1,0.4,0.1,0.8,0.1,1.2v3.2h1.7v1.4H8.6v-4.3
	c0-0.7-0.1-1.2-0.3-1.5s-0.5-0.6-1-0.8C6.8,7.9,6,7.8,5,7.8c-0.4,0-0.9,0-1.4,0v5.5h1.7v1.4H0z M3.6,1.7v4.8h2.2
	c0.4,0,0.8,0,1.2-0.1C7.5,6.3,7.8,6.2,8,6c0.3-0.2,0.6-0.5,0.8-0.9C9,4.8,9.1,4.4,9.1,3.9c0-0.6-0.1-1-0.4-1.4S8,2,7.6,1.8
	C7.2,1.7,6.5,1.7,5.6,1.7H3.6z"/>
<path class="st0" d="M13.5,7.6c0-0.9,0.1-1.7,0.4-2.4s0.6-1.4,1-2s0.9-1.1,1.4-1.5c0.7-0.6,1.4-1,2.3-1.3S20.2,0,21.1,0
	c2.1,0,3.9,0.7,5.4,2.2c1.5,1.4,2.2,3.2,2.2,5.3c0,1.4-0.3,2.6-1,3.7s-1.5,2-2.6,2.7c-1.1,0.7-2.5,1-4,1c-1.3,0-2.5-0.2-3.5-0.7
	c-0.7-0.4-1.4-0.8-2-1.4c-0.6-0.6-1.1-1.2-1.4-2C13.7,9.9,13.5,8.8,13.5,7.6z M21.2,13.3c1,0,1.9-0.2,2.8-0.7s1.5-1.2,2-2.1
	s0.7-1.9,0.7-3c0-1.6-0.5-3-1.6-4.1s-2.4-1.7-4-1.7c-1,0-2,0.3-2.9,0.8s-1.6,1.2-2.1,2.1c-0.5,0.9-0.7,1.9-0.7,2.9
	c0,0.9,0.2,1.8,0.6,2.7c0.3,0.6,0.7,1.2,1.3,1.7c0.5,0.5,1.1,0.8,1.8,1.1C19.8,13.2,20.5,13.3,21.2,13.3z"/>
<path class="st0" d="M42.2,1.5V0.3h1.7v4.5h-1.6c-0.2-0.8-0.6-1.4-1.1-1.9c-0.9-0.8-2-1.3-3.3-1.3c-1.5,0-2.7,0.5-3.8,1.6
	s-1.5,2.5-1.5,4.2c0,1.9,0.6,3.4,1.8,4.5c1,0.9,2.2,1.3,3.6,1.3c0.7,0,1.4-0.1,2.1-0.4c0.6-0.3,1.1-0.6,1.5-1c0.4-0.4,0.8-1,1.1-1.7
	h1.8c-0.2,0.6-0.4,1.1-0.6,1.6c-0.4,0.7-0.9,1.3-1.5,1.8c-0.6,0.5-1.3,0.9-2,1.1C39.6,14.9,38.8,15,38,15c-1.4,0-2.6-0.3-3.7-0.9
	c-1.1-0.6-2-1.5-2.6-2.5c-0.7-1.1-1-2.4-1-4c0-2.2,0.7-4,2.1-5.4c1.4-1.4,3-2.1,5-2.1c0.8,0,1.7,0.1,2.5,0.4S41.7,1.1,42.2,1.5z"/>
<path class="st0" d="M45.9,14.7v-1.4h1.7V1.7h-1.7V0.3h5.4v1.4h-1.8v5.6l5.1-5.6h-1.5V0.3h5.2v1.4H57l-5.2,5.7l5.1,6h1.4v1.4h-5.2
	v-1.4h1.5l-5.1-5.8v5.8h1.8v1.4H45.9z"/>
<path class="st0" d="M59.7,14.7V9.8h1.6c0.1,0.7,0.3,1.2,0.5,1.6s0.5,0.7,0.9,1c0.4,0.3,0.8,0.5,1.1,0.7c0.4,0.2,0.9,0.2,1.4,0.2
	c1,0,1.7-0.2,2.2-0.7c0.5-0.5,0.8-1,0.8-1.7c0-0.6-0.2-1-0.5-1.4s-0.8-0.7-1.5-0.9l-3.5-1.1C62,7.2,61.4,7,61,6.7
	c-0.4-0.3-0.7-0.6-1-1.1s-0.4-1.1-0.4-1.7c0-1.1,0.4-2.1,1.2-2.8S62.7,0,64.1,0c0.7,0,1.4,0.1,2,0.4c0.6,0.2,1.1,0.6,1.6,1.2V0.3
	h1.5v4.2h-1.5c-0.2-0.9-0.6-1.6-1.2-2.1s-1.4-0.8-2.4-0.8c-0.7,0-1.3,0.2-1.8,0.6c-0.5,0.4-0.8,0.9-0.8,1.5c0,0.6,0.2,1,0.6,1.3
	c0.4,0.3,1,0.6,1.8,0.8l2.3,0.6c0.9,0.3,1.7,0.6,2.2,0.9c0.6,0.4,1,0.8,1.3,1.4c0.3,0.6,0.4,1.2,0.4,1.9c0,1.4-0.5,2.5-1.6,3.3
	c-0.8,0.6-1.9,0.9-3.1,0.9c-0.8,0-1.5-0.1-2.2-0.3c-0.6-0.2-1.3-0.6-2-1.1v1.2H59.7z"/>
<path class="st0" d="M70.5,4.3v-4h10.8v4h-1.7V1.7h-2.8v11.7h1.8v1.4h-5.5v-1.4H75V1.7h-2.8v2.6H70.5z"/>
<path class="st0" d="M84.5,0.3h6.6v1.4h-1.7l3.9,11.7h1.3v1.4h-5v-1.4h1.7l-1.1-3.5h-5L84,13.3h1.7v1.4h-4.9v-1.4h1.4l4.1-11.7h-1.8
	V0.3z M87.7,2.3l-2.1,6.1h4.1L87.7,2.3z"/>
<path class="st0" d="M95.5,14.7v-1.4h1.7V1.7h-1.7V0.3h6.5c1.6,0,2.7,0.3,3.4,1s1.1,1.6,1.1,2.7c0,0.7-0.2,1.4-0.6,1.9s-1,1-1.9,1.4
	c0.4,0.1,0.7,0.2,0.9,0.4c0.3,0.2,0.5,0.4,0.6,0.6c0.1,0.2,0.2,0.4,0.2,0.6c0.1,0.4,0.1,0.8,0.1,1.2v3.2h1.7v1.4h-3.6v-4.3
	c0-0.7-0.1-1.2-0.3-1.5s-0.5-0.6-1-0.8c-0.5-0.2-1.2-0.2-2.2-0.2c-0.4,0-0.9,0-1.4,0v5.5h1.7v1.4H95.5z M99.2,1.7v4.8h2.2
	c0.4,0,0.8,0,1.2-0.1c0.4-0.1,0.7-0.2,0.9-0.3c0.3-0.2,0.6-0.5,0.8-0.9c0.2-0.4,0.3-0.8,0.3-1.2c0-0.6-0.1-1-0.4-1.4
	c-0.3-0.4-0.7-0.6-1.1-0.7c-0.4-0.1-1.1-0.2-1.9-0.2H99.2z"/>
<path class="st0" d="M113.9,14.7v-1.4h1.8V1.7h-1.7V0.3h5.5v1.4h-1.9v11.7h4.6v-2.8h1.6v4.2H113.9z"/>
<path class="st0" d="M125.1,14.7v-1.4h1.7V1.7h-1.7V0.3h5.4v1.4h-1.8v11.7h1.7v1.4H125.1z"/>
<path class="st0" d="M133.4,13.3V1.7h-1.7V0.3h11v3.9h-1.7V1.7h-5.7v4.6h5v1.5h-5v5.6h2v1.4h-5.7v-1.4H133.4z"/>
<path class="st0" d="M143.8,14.7v-1.4h1.7V1.7h-1.7V0.3h11.1v3.9h-1.6V1.7h-5.8v4.6h4.9v1.5h-4.9v5.5h5.9v-2.9h1.6v4.3H143.8z"/>
<path class="st0" d="M156.5,14.7V9.8h1.6c0.1,0.7,0.3,1.2,0.5,1.6c0.2,0.4,0.5,0.7,0.9,1c0.4,0.3,0.8,0.5,1.1,0.7
	c0.4,0.2,0.9,0.2,1.4,0.2c1,0,1.7-0.2,2.2-0.7c0.5-0.5,0.8-1,0.8-1.7c0-0.6-0.2-1-0.5-1.4c-0.3-0.4-0.8-0.7-1.5-0.9l-3.5-1.1
	c-0.7-0.2-1.3-0.5-1.7-0.8c-0.4-0.3-0.7-0.6-1-1.1s-0.4-1.1-0.4-1.7c0-1.1,0.4-2.1,1.2-2.8S159.6,0,161,0c0.7,0,1.4,0.1,2,0.4
	s1.1,0.6,1.6,1.2V0.3h1.5v4.2h-1.5c-0.2-0.9-0.6-1.6-1.2-2.1s-1.4-0.8-2.4-0.8c-0.7,0-1.3,0.2-1.8,0.6s-0.8,0.9-0.8,1.5
	c0,0.6,0.2,1,0.6,1.3c0.4,0.3,1,0.6,1.8,0.8l2.3,0.6c0.9,0.3,1.7,0.6,2.2,0.9s1,0.8,1.3,1.4c0.3,0.6,0.4,1.2,0.4,1.9
	c0,1.4-0.5,2.5-1.6,3.3c-0.8,0.6-1.9,0.9-3.1,0.9c-0.8,0-1.5-0.1-2.2-0.3c-0.6-0.2-1.3-0.6-2-1.1v1.2H156.5z"/>
<path class="st0" d="M167.4,4.3v-4h10.8v4h-1.7V1.7h-2.8v11.7h1.8v1.4h-5.5v-1.4h1.8V1.7h-2.8v2.6H167.4z"/>
<path class="st0" d="M179.3,0.3h5.1v1.4h-1.6l2.9,4.8l2.9-4.8h-1.5V0.3h4.8v1.4h-1.4l-3.9,6.5v5.1h1.7v1.4h-5.3v-1.4h1.7V8.2
	l-3.8-6.5h-1.5V0.3z"/>
<path class="st0" d="M192.8,14.7v-1.4h1.8V1.7h-1.7V0.3h5.5v1.4h-1.9v11.7h4.6v-2.8h1.6v4.2H192.8z"/>
<path class="st0" d="M203.9,14.7v-1.4h1.7V1.7h-1.7V0.3H215v3.9h-1.6V1.7h-5.8v4.6h4.9v1.5h-4.9v5.5h5.9v-2.9h1.6v4.3H203.9z"/>
</svg>
